<?xml version="1.0" encoding="utf-8"?>
<!-- Generator: Adobe Illustrator 23.0.2, SVG Export Plug-In . SVG Version: 6.00 Build 0)  -->
<svg version="1.1" id="Capa_1" xmlns="http://www.w3.org/2000/svg" xmlns:xlink="http://www.w3.org/1999/xlink" x="0px" y="0px"
	 viewBox="0 0 512 512" style="enable-background:new 0 0 512 512;" xml:space="preserve">
<style type="text/css">
	.st0{fill:#D4351C;}
</style>
<g>
	<path class="st0" d="M256,0C115.3,0,0,115.3,0,256s115.3,256,256,256s256-115.3,256-256S396.7,0,256,0z M88,354.4
		C70.9,325.6,61,292,61,256c0-107.1,86.4-194.7,194.4-195c36.3,0,69.9,9.9,99,27c8.7,5.1,10.5,16.5,3.6,23.7
		C312.1,157.6,157.6,312.1,111.7,358C104.5,364.9,93.1,363.1,88,354.4L88,354.4z M256.6,451c-36.3,0-69.9-9.9-99-27
		c-8.7-5.1-10.5-16.8-3.3-23.7l246-246c6.9-7.2,18.6-5.4,23.7,3.3c17.1,28.8,27,62.4,27,98.4C451,363.7,364,450.7,256.6,451z"/>
</g>
</svg>
