<?xml version="1.0" encoding="utf-8"?>
<!-- Generator: Adobe Illustrator 23.0.2, SVG Export Plug-In . SVG Version: 6.00 Build 0)  -->
<svg version="1.1" id="Capa_1" xmlns="http://www.w3.org/2000/svg" xmlns:xlink="http://www.w3.org/1999/xlink" x="0px" y="0px"
	 viewBox="0 0 612 699.4" style="enable-background:new 0 0 612 699.4;" xml:space="preserve">
<style type="text/css">
	.st0{fill:#1D70B8;}
</style>
<g>
	<g id="_x33__21_">
		<g>
			<path class="st0" d="M459,0c-2.7,0-262.3,0-262.3,0c-46.2,0-87.4,42.4-87.4,87.4L84,88c-46.2,0-84,41.8-84,86.8V612
				c0,45,41.2,87.4,87.4,87.4h327.9c46.2,0,87.4-42.4,87.4-87.4h21.9c46.2,0,87.4-42.4,87.4-87.4V175.4L459,0z M415.3,655.7H87.4
				c-22.9,0-43.7-21.4-43.7-43.7V174.9c0-22.3,18.7-43,41.6-43l23.9-0.7v393.4c0,45,41.2,87.4,87.4,87.4H459
				C459,634.3,438.2,655.7,415.3,655.7z M568.3,524.6c0,22.3-20.8,43.7-43.7,43.7H196.7c-22.9,0-43.7-21.4-43.7-43.7V87.4
				c0-22.3,20.8-43.7,43.7-43.7h218.6c-0.4,50.3,0,88,0,88c0,45.4,40.9,86.9,87.4,86.9c0,0,23.2,0,65.6,0V524.6z M502.7,174.9
				c-23.3,0-43.7-42.3-43.7-65c0,0,0-23,0-65.5v0l109.3,130.5H502.7z M459,306.4H262.3c-12.1,0-21.9,9.8-21.9,21.8
				s9.8,21.8,21.9,21.8H459c12.1,0,21.9-9.8,21.9-21.8C480.9,316.2,471.1,306.4,459,306.4z M459,415.6H262.3
				c-12.1,0-21.9,9.8-21.9,21.8c0,12.1,9.8,21.8,21.9,21.8H459c12.1,0,21.9-9.8,21.9-21.8C480.9,425.3,471.1,415.6,459,415.6z"/>
		</g>
	</g>
</g>
</svg>
