<?xml version="1.0" encoding="utf-8"?>
<!-- Generator: Adobe Illustrator 23.0.2, SVG Export Plug-In . SVG Version: 6.00 Build 0)  -->
<svg version="1.1" id="Capa_1" xmlns="http://www.w3.org/2000/svg" xmlns:xlink="http://www.w3.org/1999/xlink" x="0px" y="0px"
	 viewBox="0 0 512 512" style="enable-background:new 0 0 512 512;" xml:space="preserve">
<style type="text/css">
	.st0{fill:#FFFFFF;}
</style>
<g>
	<g>
		<path class="st0" d="M496,418.4L333.5,256L496,93.6c21.4-21.4,21.4-56.2,0-77.5c-21.4-21.4-56.2-21.4-77.5,0L256,178.5L93.6,16
			C72.2-5.3,37.4-5.3,16,16s-21.4,56.2,0,77.5L178.5,256L16,418.4c-21.4,21.4-21.4,56.2,0,77.5s56.2,21.4,77.5,0L256,333.5
			L418.4,496c21.4,21.4,56.2,21.4,77.5,0C517.3,474.6,517.3,439.8,496,418.4z"/>
	</g>
</g>
</svg>
